<?xml version="1.0" standalone="no"?>
<!DOCTYPE svg PUBLIC "-//W3C//DTD SVG 20010904//EN"
 "http://www.w3.org/TR/2001/REC-SVG-20010904/DTD/svg10.dtd">
<svg version="1.0" xmlns="http://www.w3.org/2000/svg"
 width="512.000000pt" height="512.000000pt" viewBox="0 0 512.000000 512.000000"
 preserveAspectRatio="xMidYMid meet">
<g transform="translate(0.000000,512.000000) scale(0.100000,-0.100000)"
fill="#000000" stroke="none">
<path d="M2379 4965 c-2 -1 -34 -5 -71 -9 -370 -33 -774 -181 -1098 -400 -63
-43 -117 -81 -120 -85 -3 -3 -27 -24 -55 -46 -107 -84 -258 -235 -340 -339
-16 -21 -38 -48 -48 -60 -10 -11 -56 -77 -101 -146 -152 -231 -251 -453 -318
-715 -35 -138 -32 -127 -47 -225 -25 -169 -29 -224 -26 -415 4 -394 83 -714
261 -1063 221 -433 590 -810 1003 -1024 30 -16 59 -32 65 -36 21 -16 234 -102
326 -133 149 -49 327 -87 495 -106 88 -10 418 -10 505 0 226 25 509 96 665
166 231 105 345 169 500 281 342 248 614 584 786 969 67 151 135 358 154 471
3 19 8 42 10 50 9 31 17 84 34 225 10 75 7 443 -3 510 -4 22 -11 72 -17 110
-88 578 -427 1154 -889 1508 -30 23 -61 47 -67 54 -36 33 -266 170 -375 222
-247 119 -463 183 -763 226 -44 7 -461 16 -466 10z m326 -1209 c88 -13 109
-17 170 -32 126 -33 295 -116 410 -202 140 -105 293 -292 365 -449 33 -71 69
-172 76 -213 3 -14 7 -33 10 -42 31 -103 36 -331 10 -470 -32 -171 -106 -349
-198 -477 -55 -77 -69 -93 -157 -179 -170 -166 -377 -272 -618 -318 -92 -17
-273 -22 -363 -10 -132 17 -313 74 -406 127 -21 12 -48 27 -59 33 -11 6 -47
30 -80 53 -274 189 -471 523 -503 853 -18 191 4 376 65 540 163 435 556 744
1003 787 30 3 56 6 58 8 5 4 171 -3 217 -9z"/>
</g>
</svg>
