<svg width="360" height="201" fill="none" xmlns="http://www.w3.org/2000/svg"><path fill="#E8E8E8" d="M0 0h360v201H0z"/><path d="M136.42 116.64c0-2.77-1.62-4.49-3.85-4.49s-3.85 1.72-3.85 4.49c0 2.76 1.62 4.48 3.85 4.48s3.85-1.72 3.85-4.48zm-1.02 0c0 2.26-1.25 3.5-2.83 3.5-1.59 0-2.83-1.24-2.83-3.5 0-2.27 1.24-3.5 2.83-3.5 1.58 0 2.83 1.23 2.83 3.5zm7.52-4.64c-.32.27-.8.27-1.47.26l-.71.01c-2 .05-2.99 1.57-2.99 4.49v.7c0 2.42 1.18 3.68 2.94 3.68 1.75 0 2.91-1.27 2.91-3.33s-1.18-3.15-2.7-3.15c-.9 0-1.75.37-2.2 1.2h-.08c.14-1.7.77-2.6 2.13-2.65 1.21-.05 2.08-.02 2.68-.6l-.51-.61zm-2.23 8.23c-1.2 0-1.93-.95-1.93-2.42.02-1.43.74-2.25 1.9-2.25 1.2 0 1.94.82 1.94 2.25 0 1.48-.73 2.42-1.91 2.42zm3.87.77h.34c1.45 0 1.87-1.13 1.96-3.27l.1-2.34h2.4V121h1.01v-6.55h-4.36l-.12 2.9c-.09 2.2-.3 2.71-1.1 2.71h-.23v.94zm10.32.14c1.77 0 2.96-1.35 2.96-3.38 0-2.04-1.2-3.4-2.96-3.4-1.78 0-2.97 1.36-2.97 3.4 0 2.03 1.2 3.38 2.97 3.38zm0-.9c-1.35 0-1.96-1.17-1.96-2.48s.61-2.49 1.96-2.49c1.34 0 1.96 1.18 1.96 2.5 0 1.3-.62 2.46-1.96 2.46zm3.82.76h1.2l2.24-2.81h.51V121h1v-2.81h.52l2.22 2.81h1.2l-2.63-3.32 2.6-3.23h-1.2l-2.17 2.8h-.53v-2.8h-1v2.8h-.55l-2.18-2.8h-1.2l2.63 3.23-2.66 3.32zm10.33 0h1v-2.76h.91l2.15 2.76h1.3l-2.68-3.4 2.64-3.14h-1.3l-2.35 2.84h-.66v-2.84h-1V121zm7.46-1.48v-5.06h-1.01V121h1.18l3.13-5.06V121h1v-6.55h-1.15l-3.15 5.07zM186 121h1.01v-5.6h3.14v5.6h1v-6.55h-5.15V121zm9.65.14c1.77 0 2.96-1.35 2.96-3.38 0-2.04-1.19-3.4-2.96-3.4-1.78 0-2.97 1.36-2.97 3.4 0 2.03 1.2 3.38 2.97 3.38zm0-.9c-1.35 0-1.96-1.17-1.96-2.48s.61-2.49 1.96-2.49c1.34 0 1.96 1.18 1.96 2.5 0 1.3-.62 2.46-1.96 2.46zm4.5.76h1v-2.76h.9l2.16 2.76h1.3l-2.69-3.4 2.65-3.14h-1.3l-2.35 2.84h-.67v-2.84h-1V121zm8.37.15c1.14 0 1.74-.61 1.94-1.04h.06v.89h1v-4.31c0-2.08-1.59-2.32-2.42-2.32-.99 0-2.11.34-2.63 1.53l.96.34c.22-.47.75-.98 1.7-.98.93 0 1.39.49 1.39 1.32v.04c0 .48-.5.44-1.7.6-1.2.15-2.53.42-2.53 1.92 0 1.28.99 2.01 2.23 2.01zm.15-.9c-.8 0-1.38-.36-1.38-1.06 0-.76.7-1 1.49-1.1.42-.06 1.56-.17 1.74-.38v.92c0 .82-.65 1.62-1.85 1.62zm9.07-5.8h-1V121h1v-2.8h3.13v2.8h1v-6.55h-1v2.82h-3.13v-2.81zm8.72 6.69c1.33 0 2.3-.67 2.6-1.66l-.96-.27c-.26.68-.85 1.02-1.64 1.02-1.18 0-2-.76-2.04-2.16h4.75v-.43c0-2.44-1.45-3.27-2.81-3.27-1.78 0-2.95 1.4-2.95 3.4 0 2.02 1.16 3.37 3.05 3.37zm-2.04-3.94c.07-1.02.79-1.93 1.94-1.93 1.09 0 1.79.82 1.79 1.93h-3.73zm5.67-1.8h2.16v5.6h1.01v-5.6h2.15v-.95h-5.32v.94z" fill="#000"/><path clip-rule="evenodd" d="M198.6 68.76h-36.2c-.36 0-.65.3-.65.66v29.16c0 .36.29.66.65.66h36.2c.36 0 .65-.3.65-.66V69.42a.65.65 0 00-.65-.66z" stroke="#000" stroke-width="1.2" stroke-linecap="round" stroke-linejoin="round"/><path clip-rule="evenodd" d="M185.46 84.38l-7.96 5.72V78.67l7.96 5.71z" stroke="#000" stroke-width="1.2" stroke-linecap="round" stroke-linejoin="round"/><path d="M199.25 68.76h-7.5v7.62h7.5v-7.62zM169.25 68.76h-7.5v7.62h7.5v-7.62z" stroke="#000" stroke-width="1.2" stroke-linecap="round" stroke-linejoin="round"/><path d="M199.25 76.38h-7.5V84h7.5v-7.62zM169.25 76.38h-7.5V84h7.5v-7.62zM199.25 84h-7.5v7.62h7.5V84zM169.25 84h-7.5v7.62h7.5V84zM199.25 91.62h-7.5v7.62h7.5v-7.62zM169.25 91.62h-7.5v7.62h7.5v-7.62z" stroke="#000" stroke-width="1.2" stroke-linecap="round" stroke-linejoin="round"/><path stroke="#000" stroke-width=".5" d="M161.25 68.25h38.5v31.5h-38.5z"/></svg>